<mxfile host="app.diagrams.net" modified="2023-06-14T20:25:17.956Z" agent="Mozilla/5.0 (Windows NT 10.0; Win64; x64; rv:109.0) Gecko/20100101 Firefox/114.0" etag="_STo3G4WNuwvsrQBjE6e" version="21.3.8" type="device">
  <diagram name="Seite-1" id="Xp8cTXImOdVrtvGnLiQm">
    <mxGraphModel dx="2501" dy="774" grid="1" gridSize="10" guides="1" tooltips="1" connect="1" arrows="1" fold="1" page="1" pageScale="1" pageWidth="827" pageHeight="1169" math="0" shadow="0">
      <root>
        <mxCell id="0" />
        <mxCell id="1" parent="0" />
        <mxCell id="5WLFrvUhtXnUvOnXGgW4-5" style="edgeStyle=orthogonalEdgeStyle;rounded=0;orthogonalLoop=1;jettySize=auto;html=1;exitX=0.5;exitY=1;exitDx=0;exitDy=0;entryX=0.5;entryY=0;entryDx=0;entryDy=0;" parent="1" source="5WLFrvUhtXnUvOnXGgW4-1" target="5WLFrvUhtXnUvOnXGgW4-3" edge="1">
          <mxGeometry relative="1" as="geometry" />
        </mxCell>
        <mxCell id="5WLFrvUhtXnUvOnXGgW4-6" style="edgeStyle=orthogonalEdgeStyle;rounded=0;orthogonalLoop=1;jettySize=auto;html=1;exitX=0.5;exitY=1;exitDx=0;exitDy=0;entryX=0.5;entryY=0;entryDx=0;entryDy=0;" parent="1" source="5WLFrvUhtXnUvOnXGgW4-1" target="5WLFrvUhtXnUvOnXGgW4-4" edge="1">
          <mxGeometry relative="1" as="geometry" />
        </mxCell>
        <mxCell id="5WLFrvUhtXnUvOnXGgW4-1" value="&lt;b&gt;Artificial Data (AI)&lt;br&gt;&lt;/b&gt;" style="rounded=0;whiteSpace=wrap;html=1;fillColor=#99CCFF;" parent="1" vertex="1">
          <mxGeometry x="-70" y="180" width="120" height="60" as="geometry" />
        </mxCell>
        <mxCell id="5WLFrvUhtXnUvOnXGgW4-10" style="edgeStyle=orthogonalEdgeStyle;rounded=0;orthogonalLoop=1;jettySize=auto;html=1;exitX=0.5;exitY=1;exitDx=0;exitDy=0;entryX=1;entryY=0.5;entryDx=0;entryDy=0;" parent="1" source="5WLFrvUhtXnUvOnXGgW4-2" target="5WLFrvUhtXnUvOnXGgW4-7" edge="1">
          <mxGeometry relative="1" as="geometry" />
        </mxCell>
        <mxCell id="5WLFrvUhtXnUvOnXGgW4-2" value="&lt;b&gt;ECG/Real Data &lt;br&gt;&lt;/b&gt;" style="rounded=0;whiteSpace=wrap;html=1;fillColor=#FFCCCC;" parent="1" vertex="1">
          <mxGeometry x="390" y="180" width="120" height="60" as="geometry" />
        </mxCell>
        <mxCell id="5WLFrvUhtXnUvOnXGgW4-9" style="edgeStyle=orthogonalEdgeStyle;rounded=0;orthogonalLoop=1;jettySize=auto;html=1;exitX=0.5;exitY=1;exitDx=0;exitDy=0;entryX=0;entryY=0.5;entryDx=0;entryDy=0;" parent="1" source="5WLFrvUhtXnUvOnXGgW4-3" target="5WLFrvUhtXnUvOnXGgW4-7" edge="1">
          <mxGeometry relative="1" as="geometry" />
        </mxCell>
        <mxCell id="5WLFrvUhtXnUvOnXGgW4-3" value="&lt;b&gt;Uniform Data&lt;/b&gt;" style="rounded=0;whiteSpace=wrap;html=1;fillColor=#99CCFF;" parent="1" vertex="1">
          <mxGeometry x="-210" y="280" width="120" height="60" as="geometry" />
        </mxCell>
        <mxCell id="5WLFrvUhtXnUvOnXGgW4-8" style="edgeStyle=orthogonalEdgeStyle;rounded=0;orthogonalLoop=1;jettySize=auto;html=1;exitX=0.5;exitY=1;exitDx=0;exitDy=0;entryX=0.5;entryY=0;entryDx=0;entryDy=0;" parent="1" source="5WLFrvUhtXnUvOnXGgW4-4" target="5WLFrvUhtXnUvOnXGgW4-7" edge="1">
          <mxGeometry relative="1" as="geometry" />
        </mxCell>
        <mxCell id="5WLFrvUhtXnUvOnXGgW4-4" value="&lt;b&gt;Random Data&lt;/b&gt;" style="rounded=0;whiteSpace=wrap;html=1;fillColor=#99CCFF;" parent="1" vertex="1">
          <mxGeometry x="70" y="280" width="120" height="60" as="geometry" />
        </mxCell>
        <mxCell id="5WLFrvUhtXnUvOnXGgW4-7" value="&lt;b&gt;Experiments&lt;/b&gt;" style="rounded=0;whiteSpace=wrap;html=1;fillColor=#FFFFCC;" parent="1" vertex="1">
          <mxGeometry x="70" y="460" width="120" height="60" as="geometry" />
        </mxCell>
      </root>
    </mxGraphModel>
  </diagram>
</mxfile>
